<?xml version="1.0" encoding="utf-8"?>
<!-- Generator: Adobe Illustrator 19.0.0, SVG Export Plug-In . SVG Version: 6.00 Build 0)  -->
<svg version="1.1" id="Vrstva_1" xmlns="http://www.w3.org/2000/svg" xmlns:xlink="http://www.w3.org/1999/xlink" x="0px" y="0px"
	 viewBox="0 0 850.4 263.5" style="enable-background:new 0 0 850.4 263.5;" xml:space="preserve">
<style type="text/css">
	.st0{fill:#339933;}
	.st1{fill:#66CCFF;}
</style>
<g id="XMLID_14_">
	<path id="XMLID_7568_" class="st0" d="M206.5,122.4c-12.7-11.3-66.5-13.6-66.5-13.6c-0.5,3.2-0.7,6.4-0.7,9.8c0,38.1,30.9,69,69,69
		c6.6,0,12.9-0.9,18.9-2.7C227.2,184.9,218.8,133.3,206.5,122.4z"/>
	<path id="XMLID_7567_" class="st1" d="M235.6,89.6c14.6,13,24.6,74.3,24.6,74.3c10.6-12.1,17-28,17-45.4c0-38.1-30.9-69-69-69
		c-20.8,0-39.5,9.2-52.1,23.8C156.1,73.3,220.5,76.1,235.6,89.6z"/>
	<path id="XMLID_7565_" d="M112.3,80.6c-3.9-5.2-8-9-12.3-11.3c-4.3-2.3-9.2-3.4-14.5-3.4c-10.1,0-18,4.1-23.6,12.2
		c-5.7,8.1-8.5,19.4-8.5,33.6c0,6.7,0.8,12.9,2.4,18.5c1.6,5.6,3.9,10.4,6.9,14.5c3,4.1,6.4,7.3,10.4,9.6c4,2.3,8.4,3.4,13.2,3.4
		c4.6,0,9.3-1.3,14.1-3.8c4.8-2.6,9-5.7,12.3-9.3l21.6,14.7c-12.1,18-28.4,27.1-48.9,27.1c-8.8,0-16.7-1.9-23.9-5.7
		c-7.2-3.8-13.4-9-18.7-15.7s-9.3-14.5-12.2-23.6c-2.9-9.1-4.3-19-4.3-29.8c0-10.5,1.4-20.3,4.1-29.4c2.8-9.1,6.7-17,11.8-23.6
		C47.4,52,53.6,46.8,60.8,43c7.3-3.8,15.5-5.7,24.6-5.7c22.5,0,39.2,9.6,50.3,28.7L112.3,80.6z"/>
	<path id="XMLID_7563_" d="M353.9,111.9c0-4-1.3-7.8-4-11.2c-2.7-3.4-6.9-5.1-12.7-5.1c-3.9,0-7.3,1.1-10.2,3.3
		c-2.9,2.2-4.9,5.2-6,8.8v76.8h-26.1V71.5H321v8.3c5.7-6.9,13.4-10.3,23.2-10.3c6.5,0,11.7,1,15.7,3c4,2,7,4.5,9.2,7.5
		c3.6-3.6,8.1-6.3,13.5-8c5.4-1.7,11.1-2.5,17.2-2.5c6.2,0,11.7,1,16.6,2.9c4.8,2,8.9,4.6,12.1,8.1c3.2,3.4,5.7,7.5,7.4,12.3
		c1.7,4.8,2.5,10,2.5,15.7v75.9h-25.9v-72.5c0-4-1.3-7.8-4-11.2c-2.7-3.4-6.9-5.1-12.7-5.1c-3.9,0-7.3,1.2-10.1,3.5
		c-2.8,2.4-4.8,5.5-5.9,9.4v75.9h-25.9V111.9z"/>
	<path id="XMLID_7561_" d="M519.5,111.9c0-4-1.3-7.8-4-11.2c-2.7-3.4-6.9-5.1-12.7-5.1c-3.9,0-7.3,1.1-10.2,3.3
		c-2.9,2.2-4.9,5.2-6,8.8v76.8h-26.1V71.5h26.1v8.3c5.7-6.9,13.4-10.3,23.2-10.3c6.5,0,11.7,1,15.7,3c4,2,7,4.5,9.2,7.5
		c3.6-3.6,8.1-6.3,13.5-8c5.4-1.7,11.1-2.5,17.2-2.5c6.2,0,11.7,1,16.6,2.9c4.8,2,8.9,4.6,12.1,8.1c3.2,3.4,5.7,7.5,7.4,12.3
		c1.7,4.8,2.5,10,2.5,15.7v75.9h-25.9v-72.5c0-4-1.3-7.8-4-11.2c-2.7-3.4-6.9-5.1-12.7-5.1c-3.9,0-7.3,1.2-10.1,3.5
		c-2.8,2.4-4.8,5.5-5.9,9.4v75.9h-25.9V111.9z"/>
	<path id="XMLID_7558_" d="M639.1,65.2c-4.4,0-7.9-1.5-10.4-4.6c-2.5-3.1-3.7-7-3.7-11.7c0-4.8,1.2-8.9,3.7-12
		c2.5-3.2,6-4.7,10.4-4.7c3.8,0,7,1.6,9.8,4.7c2.8,3.2,4.1,7.2,4.1,12c0,4.7-1.4,8.6-4.2,11.7C646,63.7,642.7,65.2,639.1,65.2z
		 M626,71.5H652v112.9H626V71.5z"/>
	<path id="XMLID_7556_" d="M722.5,183.2c-1.3,0.8-3.3,1.5-6,2.2c-2.6,0.7-6.3,1-11,1c-9,0-15.9-3-20.7-9c-4.8-6-7.2-13.9-7.2-23.7
		V97.1h-11.5V71.5h11.5v-21l25.6-11.1v32.1h19.4v25.7h-19.4v53.1c0,3.8,0.9,6.4,2.6,7.9c1.7,1.5,4.2,2.2,7.3,2.2
		c2.3,0,4.6-0.5,7-1.4c2.4-0.9,4.5-2.2,6.4-3.8L722.5,183.2z"/>
	<path id="XMLID_7554_" d="M751.2,231.4l13.9-49.1L732.2,71.5h27.7l18.8,73.3l18-73.3h27.5l-45.6,160H751.2z"/>
</g>
<g id="XMLID_17_">
</g>
<g id="XMLID_18_">
</g>
<g id="XMLID_19_">
</g>
<g id="XMLID_20_">
</g>
<g id="XMLID_21_">
</g>
<g id="XMLID_22_">
</g>
</svg>
